<?xml version="1.0" encoding="UTF-8" standalone="no"?>
<svg
   fill="none"
   height="512"
   viewBox="0 0 512 512"
   width="512"
   version="1.1"
   id="svg63"
   sodipodi:docname="logo.svg"
   inkscape:version="1.1 (1:1.1+202105261517+ce6663b3b7)"
   xmlns:inkscape="http://www.inkscape.org/namespaces/inkscape"
   xmlns:sodipodi="http://sodipodi.sourceforge.net/DTD/sodipodi-0.dtd"
   xmlns="http://www.w3.org/2000/svg"
   xmlns:svg="http://www.w3.org/2000/svg">
  <defs
     id="defs67" />
  <sodipodi:namedview
     id="namedview65"
     pagecolor="#ffffff"
     bordercolor="#666666"
     borderopacity="1.0"
     inkscape:pageshadow="2"
     inkscape:pageopacity="0.0"
     inkscape:pagecheckerboard="0"
     showgrid="false"
     inkscape:zoom="1.5761719"
     inkscape:cx="256"
     inkscape:cy="256"
     inkscape:window-width="1848"
     inkscape:window-height="1016"
     inkscape:window-x="72"
     inkscape:window-y="27"
     inkscape:window-maximized="1"
     inkscape:current-layer="svg63" />
  <path
     d="M223.421 360.59C216.977 367.058 212.595 375.291 210.826 384.248C209.058 393.205 209.983 402.485 213.484 410.917C216.986 419.349 222.908 426.554 230.502 431.623C238.096 436.691 247.021 439.397 256.151 439.397C265.281 439.397 274.207 436.691 281.8 431.623C289.394 426.554 295.316 419.349 298.817 410.917C302.319 402.485 303.245 393.205 301.476 384.248C299.708 375.291 295.325 367.058 288.881 360.59C284.603 356.257 279.506 352.817 273.888 350.469C268.269 348.122 262.24 346.913 256.151 346.913C250.062 346.913 244.033 348.122 238.415 350.469C232.796 352.817 227.7 356.257 223.421 360.59Z"
     fill="black"
     id="path55" />
  <path
     d="M256.141 250.93C237.389 250.866 218.81 254.516 201.475 261.668C184.14 268.82 168.393 279.332 155.141 292.6C150.08 297.68 147.243 304.563 147.256 311.734C147.27 318.906 150.131 325.778 155.211 330.84C160.291 335.902 167.174 338.738 174.346 338.725C181.517 338.712 188.39 335.85 193.451 330.77C210.094 314.208 232.617 304.911 256.096 304.911C279.575 304.911 302.099 314.208 318.741 330.77C321.248 333.291 324.226 335.294 327.506 336.665C330.787 338.035 334.305 338.746 337.86 338.757C341.415 338.767 344.938 338.078 348.226 336.727C351.515 335.376 354.505 333.391 357.026 330.885C359.547 328.379 361.551 325.4 362.921 322.12C364.291 318.84 365.002 315.321 365.013 311.766C365.023 308.211 364.334 304.689 362.983 301.4C361.632 298.112 359.647 295.121 357.141 292.6C343.889 279.332 328.142 268.82 310.807 261.668C293.472 254.516 274.893 250.866 256.141 250.93Z"
     fill="black"
     id="path57" />
  <path
     d="M256.141 162.06C225.692 161.979 195.528 167.918 167.382 179.537C139.237 191.155 113.666 208.224 92.1412 229.76C89.6349 232.276 87.6488 235.26 86.2959 238.543C84.9431 241.826 84.2499 245.344 84.2564 248.895C84.2629 252.445 84.9687 255.96 86.3335 259.238C87.6984 262.517 89.6955 265.494 92.211 268C94.7265 270.506 97.7111 272.493 100.994 273.845C104.277 275.198 107.795 275.891 111.346 275.885C114.897 275.878 118.411 275.172 121.689 273.808C124.968 272.443 127.945 270.446 130.451 267.93C163.856 234.697 209.061 216.041 256.181 216.041C303.302 216.041 348.506 234.697 381.911 267.93C386.973 273 393.841 275.851 401.005 275.857C404.552 275.859 408.065 275.163 411.343 273.809C414.622 272.454 417.601 270.466 420.111 267.96C422.622 265.454 424.613 262.478 425.973 259.201C427.333 255.925 428.035 252.413 428.038 248.866C428.04 245.319 427.345 241.806 425.99 238.528C424.635 235.25 422.647 232.27 420.141 229.76C398.62 208.218 373.051 191.146 344.904 179.527C316.758 167.908 286.591 161.972 256.141 162.06Z"
     fill="black"
     id="path59" />
  <path
     d="M483.411 166.79C422.721 106.29 342.011 73 256.141 73C170.271 73 89.5814 106.29 28.8814 166.79C23.8211 171.87 20.986 178.753 21.0001 185.923C21.0141 193.093 23.8759 199.965 28.9561 205.025C34.0363 210.085 40.919 212.92 48.0894 212.906C55.2599 212.892 62.1306 210.03 67.191 204.95C117.393 155.007 185.327 126.971 256.141 126.971C326.955 126.971 394.889 155.007 445.091 204.95C450.152 210.032 457.023 212.895 464.194 212.91C471.366 212.925 478.25 210.09 483.331 205.03C488.413 199.97 491.276 193.098 491.291 185.927C491.306 178.755 488.472 171.872 483.411 166.79Z"
     fill="black"
     id="path61" />
  <path
     style="fill:#033076;stroke-width:0.634449;fill-opacity:1;stroke:none"
     d="m 44.094176,212.20783 c -11.701607,-2.10597 -20.182468,-10.5019 -22.342931,-22.1192 -0.913061,-4.90973 -0.100039,-10.41649 2.323507,-15.73756 3.66078,-8.03752 30.516577,-31.59338 53.644494,-47.05288 C 149.03771,79.626477 236.59546,62.620529 321.3482,79.979239 c 41.77698,8.556588 82.16802,25.809101 117.41364,50.151721 16.27926,11.24338 40.47052,31.77451 46.26698,39.26681 4.42758,5.72294 5.3599,8.58092 5.38117,16.49566 0.0177,6.59063 -0.0948,7.21102 -2.02245,11.15008 -5.19114,10.60794 -16.93568,16.9276 -28.11316,15.12752 -5.69994,-0.91795 -10.49219,-3.49377 -15.84315,-8.51566 -10.34653,-9.71025 -13.94617,-12.86845 -21.57125,-18.92595 -8.68829,-6.90211 -26.23558,-18.72286 -35.2119,-23.72052 -32.99945,-18.37279 -67.55428,-29.15454 -106.58736,-33.25724 -11.38764,-1.19693 -40.98186,-1.00747 -52.65923,0.33714 -60.76071,6.99634 -113.97764,31.49372 -156.827522,72.19249 -3.677321,3.49271 -8.009985,7.19167 -9.628144,8.21992 -4.907711,3.11856 -12.434939,4.68147 -17.851648,3.70662 z"
     id="path19674" />
  <path
     style="fill:#033076;fill-opacity:1;stroke-width:0.634449"
     d="m 105.31846,274.77268 c -16.392025,-4.06831 -25.192172,-21.85893 -18.201738,-36.79714 3.160916,-6.75473 14.094908,-17.32319 31.056768,-30.01852 18.85952,-14.11566 41.13794,-25.79135 63.76911,-33.42015 73.42453,-24.75087 155.32929,-11.01169 216.02073,36.23657 8.19032,6.37616 20.43267,17.32968 23.35583,20.89701 2.96166,3.61432 5.26514,8.788 6.03157,13.54707 2.73547,16.98572 -13.55066,32.97502 -30.42099,29.86654 -6.39993,-1.17923 -10.27165,-3.38242 -17.06647,-9.71159 -28.38803,-26.44259 -59.59218,-41.66629 -98.1681,-47.89366 -10.22739,-1.65103 -40.64034,-1.61846 -51.39034,0.055 -36.66978,5.70851 -69.01202,21.29336 -96.00302,46.26124 -7.79588,7.21153 -11.20466,9.40354 -16.95101,10.90027 -4.38247,1.14149 -7.65975,1.16255 -12.03234,0.0773 z"
     id="path19824" />
  <path
     style="fill:#033076;fill-opacity:1;stroke-width:0.634449"
     d="m 167.87803,337.47429 c -13.27285,-3.56927 -22.13047,-16.86253 -19.90253,-29.86913 1.40585,-8.20727 5.09279,-13.41038 15.95403,-22.51473 21.58738,-18.09544 47.61378,-29.3853 75.81665,-32.88812 9.29947,-1.155 26.96947,-0.86781 37.02898,0.60183 28.93465,4.22719 56.82375,17.74436 77.14121,37.38847 8.29878,8.02375 10.88367,13.71113 10.44804,22.98823 -0.21752,4.63205 -0.58694,6.1435 -2.40354,9.83395 -5.36739,10.90391 -16.63034,16.89683 -28.06903,14.93531 -5.96907,-1.02358 -10.41646,-3.51092 -17.302,-9.67669 -13.82726,-12.38184 -29.1522,-19.75497 -46.92033,-22.57429 -7.72034,-1.22501 -24.90025,-0.83929 -31.75129,0.71287 -16.34649,3.70344 -30.24999,10.93127 -42.82528,22.26302 -6.58494,5.93377 -9.27936,7.5604 -14.60091,8.81462 -5.04084,1.18806 -8.15305,1.18427 -12.614,-0.0154 z"
     id="path19863" />
  <path
     style="fill:#033076;fill-opacity:1;stroke-width:0.634449"
     d="m 250.46515,438.65045 c -2.52075,-0.28949 -7.08878,-1.46921 -10.15118,-2.62159 -32.06602,-12.06645 -40.2559,-53.42684 -15.13323,-76.42555 8.43453,-7.72145 17.64698,-11.56518 28.91591,-12.06463 13.28532,-0.58883 25.00151,3.94704 34.35479,13.30031 9.72048,9.72049 14.79592,24.33415 13.12521,37.7913 -3.1134,25.07761 -25.89569,42.91608 -51.1115,40.02016 z"
     id="path19902" />
</svg>
