<?xml version="1.0" encoding="UTF-8" standalone="no"?>
<svg
   style="enable-background:new 0 0 24 24;"
   version="1.1"
   viewBox="0 0 24 24"
   xml:space="preserve"
   id="svg60"
   sodipodi:docname="user.svg"
   inkscape:version="1.1 (1:1.1+202105261517+ce6663b3b7)"
   xmlns:inkscape="http://www.inkscape.org/namespaces/inkscape"
   xmlns:sodipodi="http://sodipodi.sourceforge.net/DTD/sodipodi-0.dtd"
   xmlns="http://www.w3.org/2000/svg"
   xmlns:svg="http://www.w3.org/2000/svg"><defs
     id="defs64" /><sodipodi:namedview
     id="namedview62"
     pagecolor="#ffffff"
     bordercolor="#666666"
     borderopacity="1.0"
     inkscape:pageshadow="2"
     inkscape:pageopacity="0.0"
     inkscape:pagecheckerboard="0"
     showgrid="false"
     inkscape:zoom="2"
     inkscape:cx="9.75"
     inkscape:cy="11.75"
     inkscape:window-width="1848"
     inkscape:window-height="1016"
     inkscape:window-x="72"
     inkscape:window-y="27"
     inkscape:window-maximized="1"
     inkscape:current-layer="icons" /><g
     id="info" /><g
     id="icons"><g
       id="user"
       transform="matrix(0.64,0,0,0.64,4.32,4.32)"><ellipse
         cx="12"
         cy="8"
         rx="5"
         ry="6"
         id="ellipse54" /><path
         d="M 21.8,19.1 C 20.9,17.3 19.2,15.8 17,14.9 16.4,14.7 15.7,14.7 15.2,15 c -1,0.6 -2,0.9 -3.2,0.9 C 10.8,15.9 9.8,15.6 8.8,15 8.3,14.8 7.6,14.7 7,15 4.8,15.9 3.1,17.4 2.2,19.2 1.5,20.5 2.6,22 4.1,22 h 15.8 c 1.5,0 2.6,-1.5 1.9,-2.9 z"
         id="path56" /></g></g></svg>
